<?xml version="1.0" encoding="UTF-8"?>
<svg width="206.95mm" height="245.3mm" clip-rule="evenodd" fill-rule="evenodd" image-rendering="optimizeQuality" shape-rendering="geometricPrecision" text-rendering="geometricPrecision" version="1.1" viewBox="0 0 20308 24071" xmlns="http://www.w3.org/2000/svg">
  <defs>
    <style type="text/css">
      .str0 { stroke:#A75F4A; stroke-width:19.6259 }
      .fil0 { fill:#A75F4A }
      .steam { opacity: 0.7 }
    </style>
  </defs>

  <!-- Coffee Cup -->
  <path class="fil0 str0" d="M2716 18847c-2221 659-3279 2450-222 3455 4978 1637 9455 1513 13926 575 2999-629 4133-1665 3326-2933 1527 1495-321 2647-2997 3357-4384 1163-10779 990-14728-507-3281-1244-2189-3179 694-3947Z"/>

  <!-- Steam Paths -->
  <g class="steam">
    <path d="M9721 3000c-300 500-400 800-300 1200 200-400 400-600 600-1000 300-500 200-700 0-1200Z">
      <animateTransform
        attributeName="transform"
        type="translate"
        values="0,-200; 0,-600; 0,-200"
        dur="4s"
        repeatCount="indefinite" />
      <animate
        attributeName="opacity"
        values="0.7; 0.3; 0.7"
        dur="4s"
        repeatCount="indefinite" />
    </path>
    <path d="M10521 3400c-200 400-300 600-200 1000 150-300 300-500 450-900 200-400 100-600 0-1000Z">
      <animateTransform
        attributeName="transform"
        type="translate"
        values="0,-200; 0,-500; 0,-200"
        dur="3s"
        repeatCount="indefinite" />
      <animate
        attributeName="opacity"
        values="0.7; 0.2; 0.7"
        dur="3s"
        repeatCount="indefinite" />
    </path>
  </g>
</svg>
